<svg data-v-423bf9ae="" xmlns="http://www.w3.org/2000/svg" viewBox="0 0 618 90" class="iconLeft"><!----><!----><!----><g data-v-423bf9ae="" id="28a44747-c78f-4c22-bfeb-b5c755e2c507" fill="#5567d5" transform="matrix(5.319148612378591,0,0,5.319148612378591,106.76564378873707,18.19148869819909)"><path d="M4.87 10.68L4.87 10.68Q2.63 10.68 1.59 9.41Q0.55 8.13 0.55 5.32L0.55 5.32L0.55 4.76Q0.55 1.96 1.57 0.68Q2.59-0.60 4.73-0.60L4.73-0.60Q6.73-0.60 7.72 0.31Q8.71 1.22 8.71 3.22L8.71 3.22L8.71 3.72L6.44 3.72Q6.44 2.52 6.10 1.94Q5.75 1.36 4.86 1.36L4.86 1.36L4.73 1.36Q3.67 1.36 3.26 2.18Q2.86 3.01 2.86 4.76L2.86 4.76L2.86 5.32Q2.86 7.08 3.27 7.90Q3.68 8.72 4.82 8.72L4.82 8.72L4.94 8.72Q5.84 8.72 6.43 8.30L6.43 8.30L6.43 6.55L4.98 6.55L4.98 4.59L8.69 4.59L8.69 9.41Q7.15 10.68 4.87 10.68ZM14.15 2.90L14.15 2.90Q14.31 2.90 14.36 2.91L14.36 2.91L14.36 5.04L13.99 5.04Q12.84 5.04 12.39 5.68L12.39 5.68L12.39 10.50L10.18 10.50L10.18 5.18L10.05 3.08L12.03 3.08L12.18 3.95Q12.92 2.90 14.15 2.90ZM21.95 10.50L19.96 10.50L19.82 9.73Q18.94 10.68 17.50 10.68L17.50 10.68Q16.32 10.68 15.78 10.06Q15.23 9.44 15.23 8.46L15.23 8.46L15.23 8.32Q15.23 7.20 15.91 6.66Q16.59 6.13 17.89 5.94L17.89 5.94L19.60 5.67Q19.59 5.10 19.36 4.84Q19.14 4.58 18.59 4.58L18.59 4.58Q17.60 4.58 17.60 5.53L17.60 5.53L15.51 5.53L15.51 5.40Q15.51 4.30 16.24 3.60Q16.97 2.90 18.66 2.90L18.66 2.90Q20.40 2.90 21.11 3.60Q21.81 4.30 21.81 5.73L21.81 5.73L21.81 8.40L21.95 10.50ZM18.31 8.89L18.31 8.89Q19.07 8.89 19.60 8.33L19.60 8.33L19.60 6.97L18.34 7.17Q17.43 7.32 17.43 8.05L17.43 8.05L17.43 8.13Q17.43 8.46 17.65 8.67Q17.86 8.89 18.31 8.89ZM33.91 5.39L33.91 10.50L31.71 10.50L31.71 5.74Q31.71 4.80 30.83 4.80L30.83 4.80Q30.11 4.80 29.68 5.45L29.68 5.45L29.68 10.50L27.48 10.50L27.48 5.74Q27.48 4.80 26.60 4.80L26.60 4.80Q25.87 4.80 25.47 5.45L25.47 5.45L25.47 10.50L23.25 10.50L23.25 5.18L23.13 3.08L25.10 3.08L25.26 3.98Q26.03 2.90 27.48 2.90L27.48 2.90Q28.90 2.90 29.43 4.05L29.43 4.05Q30.21 2.90 31.71 2.90L31.71 2.90Q32.82 2.90 33.36 3.58Q33.91 4.27 33.91 5.39L33.91 5.39ZM41.72 10.50L39.73 10.50L39.59 9.73Q38.71 10.68 37.27 10.68L37.27 10.68Q36.09 10.68 35.55 10.06Q35 9.44 35 8.46L35 8.46L35 8.32Q35 7.20 35.68 6.66Q36.36 6.13 37.66 5.94L37.66 5.94L39.37 5.67Q39.35 5.10 39.13 4.84Q38.91 4.58 38.36 4.58L38.36 4.58Q37.37 4.58 37.37 5.53L37.37 5.53L35.28 5.53L35.28 5.40Q35.28 4.30 36.01 3.60Q36.74 2.90 38.43 2.90L38.43 2.90Q40.17 2.90 40.87 3.60Q41.58 4.30 41.58 5.73L41.58 5.73L41.58 8.40L41.72 10.50ZM38.08 8.89L38.08 8.89Q38.84 8.89 39.37 8.33L39.37 8.33L39.37 6.97L38.11 7.17Q37.20 7.32 37.20 8.05L37.20 8.05L37.20 8.13Q37.20 8.46 37.41 8.67Q37.63 8.89 38.08 8.89ZM45.11 4.76L45.11 5.32Q45.11 7.07 45.49 7.90Q45.88 8.72 46.91 8.72L46.91 8.72L47.04 8.72Q48.55 8.72 48.55 6.78L48.55 6.78L50.82 6.78L50.82 6.90Q50.82 8.89 49.85 9.79Q48.89 10.68 46.91 10.68L46.91 10.68Q44.77 10.68 43.79 9.41Q42.81 8.15 42.81 5.32L42.81 5.32L42.81 4.76Q42.81 1.93 43.79 0.66Q44.77-0.60 46.91-0.60L46.91-0.60Q48.90-0.60 49.86 0.30Q50.82 1.20 50.82 3.22L50.82 3.22L50.82 3.72L48.55 3.72Q48.55 2.52 48.22 1.94Q47.89 1.36 47.04 1.36L47.04 1.36L46.91 1.36Q45.88 1.36 45.49 2.18Q45.11 3.01 45.11 4.76L45.11 4.76ZM55.26 10.68L55.26 10.68Q53.54 10.68 52.66 9.70Q51.79 8.72 51.79 7.04L51.79 7.04L51.79 6.54Q51.79 4.86 52.66 3.88Q53.54 2.90 55.26 2.90L55.26 2.90Q56.99 2.90 57.86 3.88Q58.73 4.86 58.73 6.54L58.73 6.54L58.73 7.04Q58.73 8.72 57.86 9.70Q56.99 10.68 55.26 10.68ZM54.00 7.04Q54.00 8.78 55.26 8.78Q56.52 8.78 56.52 7.04L56.52 7.04L56.52 6.54Q56.52 4.80 55.26 4.80Q54.00 4.80 54.00 6.54L54.00 6.54L54.00 7.04ZM66.60 5.47L66.60 10.50L64.40 10.50L64.40 5.84Q64.40 4.80 63.42 4.80L63.42 4.80Q62.57 4.80 62.12 5.50L62.12 5.50L62.12 10.50L59.91 10.50L59.91 5.18L59.78 3.08L61.75 3.08L61.92 4.03Q62.72 2.90 64.30 2.90L64.30 2.90Q65.48 2.90 66.04 3.63Q66.60 4.35 66.60 5.47L66.60 5.47ZM74.72 5.47L74.72 10.50L72.52 10.50L72.52 5.84Q72.52 4.80 71.54 4.80L71.54 4.80Q70.69 4.80 70.24 5.50L70.24 5.50L70.24 10.50L68.03 10.50L68.03 5.18L67.90 3.08L69.87 3.08L70.04 4.03Q70.84 2.90 72.42 2.90L72.42 2.90Q73.60 2.90 74.16 3.63Q74.72 4.35 74.72 5.47L74.72 5.47ZM82.75 6.59L82.75 7.59L78.02 7.59Q78.08 8.34 78.43 8.67Q78.78 9.00 79.42 9.00L79.42 9.00Q79.98 9.00 80.33 8.74Q80.67 8.47 80.67 8.12L80.67 8.12L82.75 8.12L82.75 8.18Q82.75 9.27 81.86 9.97Q80.98 10.68 79.41 10.68L79.41 10.68Q77.63 10.68 76.72 9.67Q75.81 8.67 75.81 6.99L75.81 6.99L75.81 6.59Q75.81 4.93 76.72 3.91Q77.63 2.90 79.32 2.90Q81.02 2.90 81.89 3.91Q82.75 4.91 82.75 6.59L82.75 6.59ZM80.53 5.99Q80.43 4.58 79.28 4.58Q78.13 4.58 78.04 5.99L78.04 5.99L80.53 5.99ZM85.81 6.54L85.81 7.04Q85.81 8.78 87.00 8.78L87.00 8.78Q87.51 8.78 87.79 8.50Q88.06 8.22 88.06 7.76L88.06 7.76L90.15 7.76L90.15 8.06Q90.15 9.25 89.33 9.97Q88.51 10.68 86.95 10.68L86.95 10.68Q85.26 10.68 84.43 9.70Q83.59 8.72 83.59 7.04L83.59 7.04L83.59 6.54Q83.59 4.86 84.43 3.88Q85.26 2.90 86.95 2.90L86.95 2.90Q88.51 2.90 89.33 3.64Q90.15 4.38 90.15 5.64L90.15 5.64L90.15 5.96L88.06 5.96Q88.06 4.80 87.00 4.80L87.00 4.80Q85.81 4.80 85.81 6.54L85.81 6.54ZM94.16 0.98L94.16 3.08L96.07 3.08L96.07 5.01L94.16 5.01L94.16 7.69Q94.16 8.33 94.43 8.55Q94.70 8.78 95.26 8.78L95.26 8.78Q95.73 8.78 95.93 8.68L95.93 8.68L95.93 10.50Q95.61 10.68 94.74 10.68L94.74 10.68Q91.95 10.68 91.95 7.92L91.95 7.92L91.95 5.01L90.82 5.01L90.82 3.08L91.95 3.08L91.95 0.98L94.16 0.98Z"></path></g><!----><g data-v-423bf9ae="" id="342af170-e91f-4b4b-806c-45b02fd3c5bc" transform="matrix(1.8,0,0,1.8,-44.725276184082034,-45)" stroke="none" fill="#5567d5"><path d="M73 44H26v-4l23.5-15L73 40zM74.6 72.6L72 62.5V46H27v16.5l-2.1 10.1c-.3 1.2.8 2.4 1.7 2.4h46.8c.9 0 1.5-1.2 1.2-2.4zM38 67h-5V54.5c0-1.4 1.1-2.5 2.5-2.5s2.5 1.1 2.5 2.5V67zm9 0h-5V54.5c0-1.4 1.1-2.5 2.5-2.5s2.5 1.1 2.5 2.5V67zm9 0h-5V54.5c0-1.4 1.1-2.5 2.5-2.5s2.5 1.1 2.5 2.5V67zm9 0h-5V54.5c0-1.4 1.1-2.5 2.5-2.5s2.5 1.1 2.5 2.5V67z"></path></g><!----></svg>